<svg xmlns="http://www.w3.org/2000/svg" width="850" height="535" viewBox="0 0 850 535" fill="none">
  <style>
    .card {
      fill: #1a1b26;
      stroke: #414868;
      stroke-width: 1.5;
      rx: 12px;
    }
    .title {
      font-family: -apple-system, BlinkMacSystemFont, "Segoe UI", Helvetica, Arial, sans-serif;
      font-size: 14px;
      font-weight: 600;
      fill: #7aa2f7;
    }
    .pill {
      fill: #24283b;
      stroke: #414868;
      stroke-width: 1;
      rx: 6px;
    }
    .pill-text {
      font-family: -apple-system, BlinkMacSystemFont, "Segoe UI", Helvetica, Arial, sans-serif;
      font-size: 11px;
      font-weight: 500;
      fill: #c0caf5;
      text-anchor: middle;
      dominant-baseline: central;
    }
  </style>

  <g transform="translate(10, 10)">
    <rect class="card" width="410" height="160" />
    <text class="title" x="20" y="32">💻 Frontend Development</text>
    
    <rect class="pill" x="20" y="55" width="65" height="28" />
    <text class="pill-text" x="52.5" y="69">React</text>
    
    <rect class="pill" x="93" y="55" width="95" height="28" />
    <text class="pill-text" x="140.5" y="69">JavaScript</text>

    <rect class="pill" x="196" y="55" width="70" height="28" />
    <text class="pill-text" x="231" y="69">HTML5</text>

    <rect class="pill" x="20" y="93" width="65" height="28" />
    <text class="pill-text" x="52.5" y="107">CSS3</text>

    <rect class="pill" x="93" y="93" width="90" height="28" />
    <text class="pill-text" x="138" y="107">Bootstrap</text>

    <rect class="pill" x="191" y="93" width="55" height="28" />
    <text class="pill-text" x="218.5" y="107">Pug</text>
  </g>

  <g transform="translate(430, 10)">
    <rect class="card" width="410" height="160" />
    <text class="title" x="20" y="32">⚙️ Backend &amp; Architecture</text>
    
    <rect class="pill" x="20" y="55" width="75" height="28" />
    <text class="pill-text" x="57.5" y="69">Node.js</text>

    <rect class="pill" x="103" y="55" width="90" height="28" />
    <text class="pill-text" x="148" y="69">Express.js</text>

    <rect class="pill" x="201" y="55" width="90" height="28" />
    <text class="pill-text" x="246" y="69">REST APIs</text>

    <rect class="pill" x="20" y="93" width="60" height="28" />
    <text class="pill-text" x="50" y="107">JWT</text>

    <rect class="pill" x="88" y="93" width="85" height="28" />
    <text class="pill-text" x="130.5" y="107">Nodemon</text>
  </g>

  <g transform="translate(10, 185)">
    <rect class="card" width="410" height="160" />
    <text class="title" x="20" y="32">🗄️ Database Management</text>
    
    <rect class="pill" x="20" y="55" width="85" height="28" />
    <text class="pill-text" x="62.5" y="69">MongoDB</text>

    <rect class="pill" x="113" y="55" width="120" height="28" />
    <text class="pill-text" x="173" y="69">MongoDB Atlas</text>

    <rect class="pill" x="20" y="93" width="75" height="28" />
    <text class="pill-text" x="57.5" y="107">MySQL</text>
  </g>

  <g transform="translate(430, 185)">
    <rect class="card" width="410" height="160" />
    <text class="title" x="20" y="32">🤖 AI, Automation &amp; Platforms</text>
    
    <rect class="pill" x="20" y="55" width="80" height="28" />
    <text class="pill-text" x="60" y="69">Botpress</text>

    <rect class="pill" x="108" y="55" width="115" height="28" />
    <text class="pill-text" x="165.5" y="69">GitHub Copilot</text>

    <rect class="pill" x="20" y="93" width="70" height="28" />
    <text class="pill-text" x="55" y="107">Ollama</text>
  </g>

  <g transform="translate(10, 360)">
    <rect class="card" width="410" height="160" />
    <text class="title" x="20" y="32">🚀 DevOps &amp; Tooling</text>
    
    <rect class="pill" x="20" y="55" width="50" height="28" />
    <text class="pill-text" x="45" y="69">Git</text>

    <rect class="pill" x="78" y="55" width="75" height="28" />
    <text class="pill-text" x="115.5" y="69">GitHub</text>

    <rect class="pill" x="161" y="55" width="85" height="28" />
    <text class="pill-text" x="203.5" y="69">Postman</text>

    <rect class="pill" x="20" y="93" width="75" height="28" />
    <text class="pill-text" x="57.5" y="107">Render</text>

    <rect class="pill" x="103" y="93" width="75" height="28" />
    <text class="pill-text" x="140.5" y="107">Heroku</text>
  </g>

  <g transform="translate(430, 360)">
    <rect class="card" width="410" height="160" />
    <text class="title" x="20" y="32">💻 Operating Systems</text>
    
    <rect class="pill" x="20" y="55" width="85" height="28" />
    <text class="pill-text" x="62.5" y="69">Windows</text>

    <rect class="pill" x="113" y="55" width="75" height="28" />
    <text class="pill-text" x="150.5" y="69">macOS</text>
  </g>
</svg>
