<svg xmlns="http://www.w3.org/2000/svg" width="850" height="535" viewBox="0 0 850 535" fill="none">
  <style>
    .card-bg {
      fill: #1a1b26;
      stroke: #414868;
      stroke-width: 1.5;
      rx: 12px;
    }
    .category-title {
      font-family: -apple-system, BlinkMacSystemFont, "Segoe UI", Helvetica, Arial, sans-serif;
      font-size: 14px;
      font-weight: 600;
      fill: #7aa2f7;
    }
    .tech-pill {
      fill: #24283b;
      stroke: #414868;
      stroke-width: 1;
      rx: 6px;
    }
    .tech-text {
      font-family: -apple-system, BlinkMacSystemFont, "Segoe UI", Helvetica, Arial, sans-serif;
      font-size: 11px;
      font-weight: 500;
      fill: #c0caf5;
    }
  </style>

  <g transform="translate(10, 10)">
    <rect class="card-bg" width="410" height="160" />
    <text class="category-title" x="20" y="32">💻 Frontend Development</text>
    
    <g transform="translate(20, 55)">
      <rect class="tech-pill" width="65" height="28" />
      <text class="tech-text" x="32.5" y="18" text-anchor="middle">React</text>
    </g>
    <g transform="translate(93, 55)">
      <rect class="tech-pill" width="95" height="28" />
      <text class="tech-text" x="47.5" y="18" text-anchor="middle">JavaScript</text>
    </g>
    <g transform="translate(196, 55)">
      <rect class="tech-pill" width="70" height="28" />
      <text class="tech-text" x="35" y="18" text-anchor="middle">HTML5</text>
    </g>

    <g transform="translate(20, 95)">
      <rect class="tech-pill" width="65" height="28" />
      <text class="tech-text" x="32.5" y="18" text-anchor="middle">CSS3</text>
    </g>
    <g transform="translate(93, 95)">
      <rect class="tech-pill" width="90" height="28" />
      <text class="tech-text" x="45" y="18" text-anchor="middle">Bootstrap</text>
    </g>
    <g transform="translate(191, 95)">
      <rect class="tech-pill" width="55" height="28" />
      <text class="tech-text" x="27.5" y="18" text-anchor="middle">Pug</text>
    </g>
  </g>

  <g transform="translate(430, 10)">
    <rect class="card-bg" width="410" height="160" />
    <text class="category-title" x="20" y="32">⚙️ Backend &amp; Architecture</text>
    
    <g transform="translate(20, 55)">
      <rect class="tech-pill" width="75" height="28" />
      <text class="tech-text" x="37.5" y="18" text-anchor="middle">Node.js</text>
    </g>
    <g transform="translate(103, 55)">
      <rect class="tech-pill" width="90" height="28" />
      <text class="tech-text" x="45" y="18" text-anchor="middle">Express.js</text>
    </g>
    <g transform="translate(201, 55)">
      <rect class="tech-pill" width="90" height="28" />
      <text class="tech-text" x="45" y="18" text-anchor="middle">REST APIs</text>
    </g>

    <g transform="translate(20, 95)">
      <rect class="tech-pill" width="60" height="28" />
      <text class="tech-text" x="30" y="18" text-anchor="middle">JWT</text>
    </g>
    <g transform="translate(88, 95)">
      <rect class="tech-pill" width="85" height="28" />
      <text class="tech-text" x="42.5" y="18" text-anchor="middle">Nodemon</text>
    </g>
  </g>

  <g transform="translate(10, 185)">
    <rect class="card-bg" width="410" height="160" />
    <text class="category-title" x="20" y="32">🗄️ Database Management</text>
    
    <g transform="translate(20, 55)">
      <rect class="tech-pill" width="85" height="28" />
      <text class="tech-text" x="42.5" y="18" text-anchor="middle">MongoDB</text>
    </g>
    <g transform="translate(113, 55)">
      <rect class="tech-pill" width="120" height="28" />
      <text class="tech-text" x="60" y="18" text-anchor="middle">MongoDB Atlas</text>
    </g>

    <g transform="translate(20, 95)">
      <rect class="tech-pill" width="75" height="28" />
      <text class="tech-text" x="37.5" y="18" text-anchor="middle">MySQL</text>
    </g>
  </g>

  <g transform="translate(430, 185)">
    <rect class="card-bg" width="410" height="160" />
    <text class="category-title" x="20" y="32">🤖 AI, Automation &amp; Platforms</text>
    
    <g transform="translate(20, 55)">
      <rect class="tech-pill" width="80" height="28" />
      <text class="tech-text" x="40" y="18" text-anchor="middle">Botpress</text>
    </g>
    <g transform="translate(108, 55)">
      <rect class="tech-pill" width="115" height="28" />
      <text class="tech-text" x="57.5" y="18" text-anchor="middle">GitHub Copilot</text>
    </g>

    <g transform="translate(20, 95)">
      <rect class="tech-pill" width="70" height="28" />
      <text class="tech-text" x="35" y="18" text-anchor="middle">Ollama</text>
    </g>
  </g>

  <g transform="translate(10, 360)">
    <rect class="card-bg" width="410" height="160" />
    <text class="category-title" x="20" y="32">🚀 DevOps &amp; Tooling</text>
    
    <g transform="translate(20, 55)">
      <rect class="tech-pill" width="50" height="28" />
      <text class="tech-text" x="25" y="18" text-anchor="middle">Git</text>
    </g>
    <g transform="translate(78, 55)">
      <rect class="tech-pill" width="75" height="28" />
      <text class="tech-text" x="37.5" y="18" text-anchor="middle">GitHub</text>
    </g>
    <g transform="translate(161, 55)">
      <rect class="tech-pill" width="85" height="28" />
      <text class="tech-text" x="42.5" y="18" text-anchor="middle">Postman</text>
    </g>

    <g transform="translate(20, 95)">
      <rect class="tech-pill" width="75" height="28" />
      <text class="tech-text" x="37.5" y="18" text-anchor="middle">Render</text>
    </g>
    <g transform="translate(103, 95)">
      <rect class="tech-pill" width="75" height="28" />
      <text class="tech-text" x="37.5" y="18" text-anchor="middle">Heroku</text>
    </g>
  </g>

  <g transform="translate(430, 360)">
    <rect class="card-bg" width="410" height="160" />
    <text class="category-title" x="20" y="32">💻 Operating Systems</text>
    
    <g transform="translate(20, 55)">
      <rect class="tech-pill" width="85" height="28" />
      <text class="tech-text" x="42.5" y="18" text-anchor="middle">Windows</text>
    </g>
    <g transform="translate(113, 55)">
      <rect class="tech-pill" width="75" height="28" />
      <text class="tech-text" x="37.5" y="18" text-anchor="middle">macOS</text>
    </g>
  </g>
</svg>
